<?xml version="1.0" encoding="utf-8"?>
<svg height="100px" width="100px" fill="#000000" version="1.1" x="0px" y="0px" viewBox="0 0 300 300" style="enable-background:new 0 0 300 300;" xmlns="http://www.w3.org/2000/svg">
  <path d="M262.8,110.1c-2.1-6-8.7-9.1-14.7-7l-18.1,6.4V80c0-6.4-5.1-11.5-11.5-11.5S207,73.6,207,80v37.6l-21,7.4V80  c0-6.4-5.1-11.5-11.5-11.5S163,73.6,163,80v53.2l-21,7.4V80c0-6.4-5.1-11.5-11.5-11.5S119,73.6,119,80v68.8l-21,7.4V80  c0-6.4-5.1-11.5-11.5-11.5S75,73.6,75,80v84.3l-30.8,10.9c-6,2.1-9.1,8.7-7,14.7c1.7,4.7,6.1,7.7,10.8,7.7c1.3,0,2.6-0.2,3.8-0.7  l23.1-8.2V220c0,6.4,5.1,11.5,11.5,11.5S98,226.4,98,220v-39.4l21-7.4V220c0,6.4,5.1,11.5,11.5,11.5S142,226.4,142,220v-55l21-7.4  V220c0,6.4,5.1,11.5,11.5,11.5S186,226.4,186,220v-70.5l21-7.4v78c0,6.4,5.1,11.5,11.5,11.5S230,226.4,230,220v-86.1l25.8-9.1  C261.8,122.7,264.9,116.1,262.8,110.1z" style="fill: rgb(255, 255, 255);"/>
</svg>