<svg xmlns="http://www.w3.org/2000/svg" version="1.1" xmlns:xlink="http://www.w3.org/1999/xlink" width="500" height="500"><svg viewBox="0 0 500 500" xmlns="http://www.w3.org/2000/svg">
  <path d="M 154.375 108.61898803710938 L 330.625 108.61898803710938 Q 342.625 108.61898803710938 350.5 116.86898803710938 Q 358.375 125.11898803710938 358.375 136.36898803710938 Q 358.375 148.36898803710938 350.5 156.24398803710938 Q 342.625 164.11898803710938 330.625 164.11898803710938 L 154.375 164.11898803710938 Q 143.125 164.11898803710938 134.875 155.86898803710938 Q 126.625 147.61898803710938 126.625 135.61898803710938 Q 126.625 124.36898803710938 134.875 116.49398803710938 Q 143.125 108.61898803710938 154.375 108.61898803710938 Z M 233.125 6.618988037109375 Q 245.875 6.618988037109375 254.125 15.243988037109375 Q 262.375 23.868988037109375 262.375 36.618988037109375 L 262.375 398.8689880371094 Q 262.375 416.8689880371094 267.625 425.8689880371094 Q 272.875 434.8689880371094 281.5 438.2439880371094 Q 290.125 441.6189880371094 298.375 441.6189880371094 Q 305.875 441.6189880371094 311.5 438.9939880371094 Q 317.125 436.3689880371094 324.625 436.3689880371094 Q 332.125 436.3689880371094 338.5 443.4939880371094 Q 344.875 450.6189880371094 344.875 461.8689880371094 Q 344.875 475.3689880371094 329.125 484.7439880371094 Q 313.375 494.1189880371094 293.875 494.1189880371094 Q 283.375 494.1189880371094 268 492.6189880371094 Q 252.625 491.1189880371094 237.625 482.8689880371094 Q 222.625 474.6189880371094 212.5 455.4939880371094 Q 202.375 436.3689880371094 202.375 401.8689880371094 L 202.375 36.618988037109375 Q 202.375 23.868988037109375 211.375 15.243988037109375 Q 220.375 6.618988037109375 233.125 6.618988037109375 Z" transform="matrix(1, 0, 0, 1, 0, 0)" style="white-space: pre;" />
</svg><style>@media (prefers-color-scheme: light) { :root { filter: none; } }
@media (prefers-color-scheme: dark) { :root { filter: invert(100%); } }
</style></svg>
