<?xml version="1.0" standalone="no"?>
<!DOCTYPE svg PUBLIC "-//W3C//DTD SVG 20010904//EN"
 "http://www.w3.org/TR/2001/REC-SVG-20010904/DTD/svg10.dtd">
<svg version="1.0" xmlns="http://www.w3.org/2000/svg"
 width="700.000000pt" height="700.000000pt" viewBox="0 0 700.000000 700.000000"
 preserveAspectRatio="xMidYMid meet">
<metadata>
Created by potrace 1.14, written by Peter Selinger 2001-2017
</metadata>
<g transform="translate(0.000000,700.000000) scale(0.100000,-0.100000)"
fill="#000000" stroke="none">
<path d="M3162 6894 c-124 -25 -234 -114 -291 -234 l-35 -75 -2 -548 c-1 -301
-3 -550 -6 -552 -2 -3 -166 -5 -364 -5 -370 -1 -405 -4 -480 -43 -69 -36 -149
-119 -181 -187 -43 -92 -36 -238 17 -340 36 -69 126 -151 201 -180 64 -25 64
-25 432 -26 202 0 370 -4 374 -7 3 -4 7 -802 9 -1774 1 -973 5 -1793 8 -1823
11 -98 46 -257 75 -344 68 -199 209 -387 366 -488 65 -42 88 -54 178 -92 78
-33 181 -59 277 -70 25 -3 69 -8 99 -12 164 -18 392 -10 536 21 100 21 269
111 342 182 79 77 108 145 107 253 0 74 -4 95 -31 152 -61 131 -163 196 -287
185 -73 -7 -80 -9 -173 -42 -64 -23 -83 -25 -180 -21 -274 11 -430 148 -470
414 -10 69 -10 3453 0 3459 6 3 235 6 511 6 525 0 536 1 625 47 199 101 260
386 123 569 -48 64 -88 95 -159 129 l-58 27 -455 3 c-250 1 -486 3 -525 5
l-70 2 -1 515 c-1 283 -4 538 -8 565 -22 163 -159 306 -321 334 -73 13 -101
12 -183 -5z"/>
</g>
</svg>
