<?xml version="1.0" standalone="no"?>
<!DOCTYPE svg PUBLIC "-//W3C//DTD SVG 20010904//EN"
 "http://www.w3.org/TR/2001/REC-SVG-20010904/DTD/svg10.dtd">
<svg version="1.0" xmlns="http://www.w3.org/2000/svg"
 width="640.000000pt" height="640.000000pt" viewBox="0 0 640.000000 640.000000"
 preserveAspectRatio="xMidYMid meet">
<metadata>
Created by potrace 1.14, written by Peter Selinger 2001-2017
</metadata>
<g transform="translate(0.000000,640.000000) scale(0.100000,-0.100000)"
fill="#000000" stroke="none">
<path d="M1846 5748 c-10 -6 -24 -11 -31 -12 -23 -3 -99 -57 -122 -86 -19 -23
-62 -93 -143 -235 -9 -16 -44 -77 -77 -135 -33 -58 -92 -161 -132 -228 -39
-68 -71 -126 -71 -130 0 -3 -6 -13 -14 -21 -8 -9 -27 -40 -42 -69 -16 -29 -33
-61 -39 -70 -76 -131 -105 -183 -105 -192 0 -5 -4 -10 -9 -10 -5 0 -11 -8 -15
-17 -3 -10 -17 -36 -31 -58 -14 -22 -28 -47 -32 -55 -4 -8 -24 -43 -45 -78
-21 -34 -38 -64 -38 -66 0 -3 -26 -49 -58 -103 -32 -54 -73 -130 -92 -168 -33
-71 -82 -205 -75 -205 3 0 1 -10 -4 -23 -9 -23 -19 -84 -27 -171 -3 -28 -7
-53 -10 -58 -3 -4 -2 -8 3 -8 4 0 8 -28 7 -62 0 -68 26 -252 39 -264 4 -4 7
-15 7 -25 0 -50 133 -311 200 -392 71 -87 141 -158 193 -197 39 -29 46 -39 42
-60 -5 -22 -49 -142 -180 -485 -46 -121 -54 -143 -55 -150 0 -3 -11 -30 -25
-61 -14 -31 -25 -62 -25 -68 0 -6 -6 -22 -13 -36 -7 -14 -26 -61 -41 -105 -16
-44 -32 -83 -35 -87 -5 -6 -118 37 -216 81 -127 58 -300 32 -415 -60 -45 -36
-105 -121 -116 -162 -10 -42 12 -82 54 -100 20 -9 109 -46 197 -82 88 -37 174
-73 190 -80 17 -7 54 -23 84 -35 30 -11 74 -30 97 -41 24 -10 45 -19 47 -19 3
0 22 -8 43 -17 22 -9 41 -17 44 -18 3 -1 19 -7 35 -14 69 -29 325 -135 380
-158 97 -41 114 -48 235 -98 63 -26 151 -63 194 -81 94 -40 117 -42 148 -11
70 67 69 266 -3 384 -56 93 -114 134 -304 213 -55 23 -101 43 -103 45 -2 2 42
127 58 160 5 11 42 106 81 210 94 251 227 603 242 638 11 26 15 27 52 21 45
-8 144 -8 219 1 50 5 62 7 136 22 19 4 37 7 40 8 12 2 118 39 150 52 69 28
176 87 239 132 67 47 231 202 231 217 0 5 10 20 23 34 33 36 101 155 133 230
26 63 68 198 88 288 2 9 20 73 39 142 20 69 45 161 56 205 11 44 30 119 43
168 20 79 38 112 38 70 0 -9 5 -30 10 -47 12 -34 97 -352 104 -388 5 -24 88
-321 104 -374 16 -52 89 -195 129 -255 103 -153 284 -311 448 -389 28 -14 55
-25 60 -26 6 -2 33 -11 60 -22 68 -27 112 -40 160 -48 22 -3 43 -8 46 -10 7
-4 152 -17 189 -17 14 0 53 3 86 7 54 5 62 4 67 -11 3 -10 44 -117 90 -238 46
-121 112 -294 147 -385 34 -91 75 -201 92 -245 16 -44 34 -89 38 -100 22 -53
24 -51 -107 -105 -69 -28 -142 -62 -162 -74 -45 -29 -99 -89 -128 -142 -84
-154 -53 -394 52 -394 19 0 68 18 140 50 57 26 647 270 653 270 4 0 23 8 42
19 19 10 37 19 40 19 3 0 16 5 30 11 14 5 59 24 100 41 41 17 84 35 95 40 11
4 61 24 110 45 50 20 99 40 110 45 62 28 172 72 183 74 7 1 18 8 24 14 7 7 18
12 26 12 22 0 125 50 139 68 30 39 -4 126 -78 201 -83 83 -182 124 -294 120
-67 -2 -133 -22 -274 -83 -78 -34 -84 -35 -97 -19 -7 10 -16 29 -19 43 -6 23
-43 124 -65 175 -4 11 -13 36 -20 55 -7 19 -16 44 -21 55 -5 11 -18 47 -30 80
-11 33 -27 74 -34 90 -7 17 -36 93 -65 170 -71 194 -99 265 -115 298 -14 26
-13 29 13 49 67 54 221 219 264 283 80 120 139 254 179 405 13 52 15 68 25
170 8 89 8 77 0 170 -10 120 -13 140 -41 230 -14 47 -27 90 -28 95 -6 18 -76
159 -103 205 -14 25 -45 77 -67 115 -77 131 -88 150 -100 178 -6 15 -15 27
-19 27 -4 0 -8 4 -8 9 0 5 -27 55 -60 111 -33 56 -60 103 -60 105 0 2 -18 33
-40 69 -22 36 -40 70 -40 75 0 5 -3 11 -7 13 -8 3 -44 66 -67 115 -6 13 -14
23 -18 23 -5 0 -8 4 -8 10 0 5 -13 31 -29 58 -15 26 -39 68 -53 93 -14 24 -69
121 -123 214 -54 94 -104 179 -109 190 -80 148 -179 214 -317 211 -81 -2 -15
22 -804 -306 -121 -50 -224 -93 -230 -94 -5 -2 -28 -11 -50 -21 -22 -10 -70
-30 -107 -45 l-68 -28 -252 105 c-315 130 -584 241 -623 258 -16 7 -70 29
-120 49 -49 20 -99 41 -110 46 -75 36 -208 51 -249 28z m482 -644 c17 -8 47
-20 65 -28 17 -8 82 -34 142 -59 61 -25 147 -61 193 -81 45 -19 84 -36 87 -36
3 0 24 -9 47 -19 24 -10 53 -21 65 -25 19 -6 20 -10 11 -43 -5 -19 -11 -43
-13 -52 -3 -16 -17 -66 -117 -435 -26 -99 -50 -182 -53 -184 -2 -3 -10 0 -17
5 -7 6 -38 19 -68 29 -30 10 -57 21 -60 24 -3 3 -32 16 -65 29 -105 42 -299
122 -330 136 -17 8 -44 19 -60 25 -17 6 -82 33 -145 59 -63 27 -146 61 -185
77 -38 15 -74 31 -80 34 -5 4 -31 14 -57 24 -27 10 -48 19 -48 21 0 2 28 52
63 112 35 59 66 115 70 123 4 8 13 24 20 35 7 11 56 97 111 191 l99 171 146
-59 c80 -33 161 -66 179 -74z m2093 94 c7 -18 16 -35 19 -38 11 -9 250 -430
250 -440 0 -6 5 -10 10 -10 6 0 10 -5 10 -10 0 -6 11 -28 25 -49 28 -46 26
-49 -55 -81 -30 -11 -79 -32 -108 -45 -29 -14 -55 -25 -58 -25 -6 0 -148 -58
-221 -91 -24 -11 -45 -19 -48 -19 -3 0 -24 -9 -48 -19 -23 -11 -98 -43 -167
-71 -69 -28 -152 -62 -185 -76 -153 -65 -200 -83 -203 -79 -2 2 -7 18 -12 37
-5 18 -36 134 -69 258 -34 124 -64 238 -67 254 -2 16 -8 34 -11 39 -4 6 -10
27 -13 46 -4 20 -11 43 -14 52 -6 13 10 22 76 48 46 17 91 36 101 41 9 6 52
24 95 41 70 27 107 43 167 69 11 5 49 21 85 35 36 15 79 33 97 41 17 8 34 14
38 14 3 0 30 11 58 24 86 40 222 93 228 90 4 -2 12 -18 20 -36z"/>
</g>
</svg>
