<?xml version="1.0" encoding="utf-8"?>
<svg viewBox="0 0 500 500" xmlns="http://www.w3.org/2000/svg">
  <path d="M 42.51300005912781 300.79998779296875 Q 40.08300005912781 300.79998779296875 38.46300005912781 299.17998779296875 Q 36.84300005912781 297.55998779296874 36.84300005912781 295.2649877929687 L 36.84300005912781 211.83498779296875 L 48.31800005912781 211.83498779296875 L 48.31800005912781 295.2649877929687 Q 48.31800005912781 297.55998779296874 46.69800005912781 299.17998779296875 Q 45.07800005912781 300.79998779296875 42.51300005912781 300.79998779296875 Z M 11.193000059127808 216.55998779296874 Q 8.898000059127808 216.55998779296874 7.345500059127808 215.14248779296875 Q 5.793000059127808 213.72498779296876 5.793000059127808 211.42998779296875 Q 5.793000059127808 209.13498779296873 7.345500059127808 207.71748779296874 Q 8.898000059127808 206.29998779296875 11.193000059127808 206.29998779296875 L 73.96800005912782 206.29998779296875 Q 76.26300005912782 206.29998779296875 77.88300005912781 207.71748779296874 Q 79.50300005912781 209.13498779296873 79.50300005912781 211.42998779296875 Q 79.50300005912781 213.85998779296875 77.88300005912781 215.20998779296875 Q 76.26300005912782 216.55998779296874 73.96800005912782 216.55998779296874 Z M 129.85798583984376 231.00498779296873 Q 132.28798583984377 231.00498779296873 133.77298583984376 232.55748779296874 Q 135.25798583984374 234.10998779296875 135.25798583984374 236.40498779296874 L 135.25798583984374 273.25998779296873 Q 135.25798583984374 286.8949877929688 127.63048583984376 294.3874877929687 Q 120.00298583984375 301.87998779296873 106.36798583984375 301.87998779296873 Q 92.86798583984375 301.87998779296873 85.24048583984376 294.3874877929687 Q 77.61298583984374 286.8949877929688 77.61298583984374 273.25998779296873 L 77.61298583984374 236.40498779296874 Q 77.61298583984374 234.10998779296875 79.16548583984375 232.55748779296874 Q 80.71798583984375 231.00498779296873 83.01298583984375 231.00498779296873 Q 85.44298583984374 231.00498779296873 86.92798583984376 232.55748779296874 Q 88.41298583984376 234.10998779296875 88.41298583984376 236.40498779296874 L 88.41298583984376 273.25998779296873 Q 88.41298583984376 282.43998779296874 93.13798583984375 287.16498779296876 Q 97.86298583984376 291.8899877929687 106.36798583984375 291.8899877929687 Q 115.14298583984376 291.8899877929687 119.80048583984376 287.16498779296876 Q 124.45798583984376 282.43998779296874 124.45798583984376 273.25998779296873 L 124.45798583984376 236.40498779296874 Q 124.45798583984376 234.10998779296875 126.01048583984375 232.55748779296874 Q 127.56298583984375 231.00498779296873 129.85798583984376 231.00498779296873 Z M 160.63798583984374 300.79998779296875 Q 158.34298583984375 300.79998779296875 156.79048583984374 299.17998779296875 Q 155.23798583984376 297.55998779296874 155.23798583984376 295.2649877929687 L 155.23798583984376 236.40498779296874 Q 155.23798583984376 234.10998779296875 156.79048583984374 232.55748779296874 Q 158.34298583984375 231.00498779296873 160.63798583984374 231.00498779296873 Q 163.06798583984374 231.00498779296873 164.55298583984376 232.55748779296874 Q 166.03798583984374 234.10998779296875 166.03798583984374 236.40498779296874 L 166.03798583984374 254.22498779296876 L 164.41798583984377 251.38998779296875 Q 165.22798583984374 247.20498779296875 167.32048583984374 243.22248779296876 Q 169.41298583984374 239.23998779296875 172.65298583984375 236.06748779296873 Q 175.89298583984376 232.89498779296875 180.07798583984376 231.07248779296873 Q 184.26298583984374 229.24998779296874 189.25798583984374 229.24998779296874 Q 192.22798583984377 229.24998779296874 194.72548583984377 230.66748779296876 Q 197.22298583984374 232.08498779296875 197.22298583984374 234.64998779296874 Q 197.22298583984374 237.48498779296875 195.73798583984376 238.83498779296875 Q 194.25298583984375 240.18498779296874 192.36298583984376 240.18498779296874 Q 190.60798583984376 240.18498779296874 188.98798583984376 239.44248779296873 Q 187.36798583984375 238.69998779296876 184.93798583984375 238.69998779296876 Q 181.56298583984375 238.69998779296876 178.25548583984374 240.52248779296875 Q 174.94798583984374 242.34498779296874 172.18048583984375 245.71998779296874 Q 169.41298583984374 249.09498779296874 167.72548583984374 253.34748779296876 Q 166.03798583984374 257.59998779296876 166.03798583984374 262.4599877929687 L 166.03798583984374 295.2649877929687 Q 166.03798583984374 297.55998779296874 164.48548583984376 299.17998779296875 Q 162.93298583984375 300.79998779296875 160.63798583984374 300.79998779296875 Z M 238.5329803466797 201.16998779296875 Q 240.82798034667968 201.16998779296875 243.32548034667968 201.70998779296875 Q 245.82298034667969 202.24998779296874 247.64548034667968 203.59998779296876 Q 249.4679803466797 204.94998779296873 249.4679803466797 207.24498779296874 Q 249.4679803466797 209.40498779296874 248.1179803466797 210.82248779296873 Q 246.76798034667968 212.23998779296875 244.8779803466797 212.23998779296875 Q 243.6629803466797 212.23998779296875 241.5029803466797 211.49748779296874 Q 239.3429803466797 210.75498779296873 237.04798034667968 210.75498779296873 Q 233.9429803466797 210.75498779296873 231.98548034667968 212.10498779296876 Q 230.0279803466797 213.45498779296875 229.1504803466797 215.68248779296874 Q 228.27298034667967 217.90998779296876 228.27298034667967 220.60998779296875 L 228.27298034667967 295.2649877929687 Q 228.27298034667967 297.55998779296874 226.7204803466797 299.17998779296875 Q 225.16798034667968 300.79998779296875 222.8729803466797 300.79998779296875 Q 220.4429803466797 300.79998779296875 218.95798034667968 299.17998779296875 Q 217.4729803466797 297.55998779296874 217.4729803466797 295.2649877929687 L 217.4729803466797 220.74498779296874 Q 217.4729803466797 211.69998779296873 223.07548034667968 206.43498779296874 Q 228.6779803466797 201.16998779296875 238.5329803466797 201.16998779296875 Z M 242.3129803466797 232.08498779296875 Q 244.4729803466797 232.08498779296875 245.95798034667968 233.50248779296874 Q 247.4429803466797 234.91998779296875 247.4429803466797 237.07998779296875 Q 247.4429803466797 239.23998779296875 245.95798034667968 240.65748779296874 Q 244.4729803466797 242.07498779296876 242.3129803466797 242.07498779296876 L 208.42798034667967 242.07498779296876 Q 206.26798034667968 242.07498779296876 204.7829803466797 240.58998779296874 Q 203.29798034667968 239.10498779296876 203.29798034667968 237.07998779296875 Q 203.29798034667968 234.78498779296876 204.7829803466797 233.43498779296874 Q 206.26798034667968 232.08498779296875 208.42798034667967 232.08498779296875 Z M 291.85796813964845 220.33998779296874 L 260.1329681396484 297.55998779296874 Q 259.59296813964846 299.17998779296875 258.24296813964844 300.12498779296874 Q 256.8929681396484 301.06998779296873 255.40796813964843 301.06998779296873 Q 252.84296813964843 301.06998779296873 251.62796813964843 299.71998779296877 Q 250.41296813964843 298.36998779296874 250.41296813964843 296.47998779296876 Q 250.27796813964844 295.53498779296876 250.68296813964844 294.4549877929687 L 285.64796813964847 209.40498779296874 Q 286.3229681396484 207.51498779296872 287.74046813964844 206.63748779296873 Q 289.15796813964846 205.75998779296873 290.91296813964846 205.89498779296875 Q 292.66796813964845 205.89498779296875 294.08546813964847 206.83998779296874 Q 295.50296813964843 207.78498779296876 296.04296813964845 209.40498779296874 L 330.87296813964844 293.6449877929688 Q 331.27796813964846 294.72498779296876 331.27796813964846 295.80498779296875 Q 331.27796813964846 298.23498779296875 329.65796813964846 299.65248779296877 Q 328.03796813964846 301.06998779296873 326.0129681396484 301.06998779296873 Q 324.3929681396485 301.06998779296873 323.04296813964845 300.12498779296874 Q 321.6929681396484 299.17998779296875 321.0179681396485 297.42498779296875 L 288.8879681396484 220.20498779296875 Z M 266.8829681396484 275.55498779296875 L 271.47296813964846 265.0249877929688 L 311.5679681396484 265.0249877929688 L 313.59296813964846 275.55498779296875 Z M 378.66298583984377 229.92498779296875 Q 387.8429858398438 229.92498779296875 395.13298583984374 234.51498779296872 Q 402.42298583984376 239.10498779296876 406.67548583984376 247.20498779296875 Q 410.92798583984376 255.30498779296875 410.92798583984376 265.8349877929687 Q 410.92798583984376 276.22998779296876 406.67548583984376 284.3974877929688 Q 402.42298583984376 292.56498779296874 395.20048583984374 297.22248779296876 Q 387.97798583984377 301.87998779296873 378.93298583984375 301.87998779296873 Q 373.93798583984375 301.87998779296873 369.55048583984376 300.3274877929687 Q 365.16298583984377 298.7749877929688 361.5854858398437 296.27748779296877 Q 358.00798583984374 293.77998779296877 355.57798583984373 290.60748779296875 Q 353.1479858398437 287.43498779296874 352.06798583984374 284.3299877929687 L 355.03798583984377 282.43998779296874 L 355.03798583984377 322.2649877929687 Q 355.03798583984377 324.55998779296874 353.55298583984376 326.17998779296875 Q 352.06798583984374 327.79998779296875 349.63798583984374 327.79998779296875 Q 347.3429858398438 327.79998779296875 345.79048583984377 326.24748779296874 Q 344.23798583984376 324.69498779296873 344.23798583984376 322.2649877929687 L 344.23798583984376 235.99998779296874 Q 344.23798583984376 233.70498779296875 345.79048583984377 232.15248779296874 Q 347.3429858398438 230.59998779296876 349.63798583984374 230.59998779296876 Q 352.06798583984374 230.59998779296876 353.55298583984376 232.15248779296874 Q 355.03798583984377 233.70498779296875 355.03798583984377 235.99998779296874 L 355.03798583984377 248.01498779296875 L 353.01298583984374 246.93498779296874 Q 353.95798583984373 243.55998779296874 356.32048583984374 240.45498779296875 Q 358.68298583984375 237.34998779296876 362.12548583984375 234.98748779296875 Q 365.56798583984374 232.62498779296874 369.82048583984374 231.27498779296874 Q 374.07298583984374 229.92498779296875 378.66298583984377 229.92498779296875 Z M 377.44798583984374 239.91498779296876 Q 370.69798583984374 239.91498779296876 365.50048583984375 243.28998779296876 Q 360.30298583984376 246.66498779296876 357.4004858398437 252.46998779296874 Q 354.49798583984375 258.2749877929688 354.49798583984375 265.8349877929687 Q 354.49798583984375 273.25998779296873 357.4004858398437 279.1999877929687 Q 360.30298583984376 285.1399877929687 365.50048583984375 288.5149877929687 Q 370.69798583984374 291.8899877929687 377.44798583984374 291.8899877929687 Q 384.19798583984374 291.8899877929687 389.32798583984373 288.5149877929687 Q 394.45798583984373 285.1399877929687 397.42798583984376 279.1999877929687 Q 400.3979858398437 273.25998779296873 400.3979858398437 265.8349877929687 Q 400.3979858398437 258.2749877929688 397.42798583984376 252.46998779296874 Q 394.45798583984373 246.66498779296876 389.32798583984373 243.28998779296876 Q 384.19798583984374 239.91498779296876 377.44798583984374 239.91498779296876 Z M 460.8779821777344 229.92498779296875 Q 470.0579821777344 229.92498779296875 477.34798217773437 234.51498779296872 Q 484.6379821777344 239.10498779296876 488.8904821777344 247.20498779296875 Q 493.1429821777344 255.30498779296875 493.1429821777344 265.8349877929687 Q 493.1429821777344 276.22998779296876 488.8904821777344 284.3974877929688 Q 484.6379821777344 292.56498779296874 477.41548217773436 297.22248779296876 Q 470.1929821777344 301.87998779296873 461.1479821777344 301.87998779296873 Q 456.1529821777344 301.87998779296873 451.7654821777344 300.3274877929687 Q 447.3779821777344 298.7749877929688 443.80048217773435 296.27748779296877 Q 440.22298217773437 293.77998779296877 437.79298217773436 290.60748779296875 Q 435.36298217773435 287.43498779296874 434.28298217773437 284.3299877929687 L 437.2529821777344 282.43998779296874 L 437.2529821777344 322.2649877929687 Q 437.2529821777344 324.55998779296874 435.7679821777344 326.17998779296875 Q 434.28298217773437 327.79998779296875 431.85298217773436 327.79998779296875 Q 429.5579821777344 327.79998779296875 428.0054821777344 326.24748779296874 Q 426.4529821777344 324.69498779296873 426.4529821777344 322.2649877929687 L 426.4529821777344 235.99998779296874 Q 426.4529821777344 233.70498779296875 428.0054821777344 232.15248779296874 Q 429.5579821777344 230.59998779296876 431.85298217773436 230.59998779296876 Q 434.28298217773437 230.59998779296876 435.7679821777344 232.15248779296874 Q 437.2529821777344 233.70498779296875 437.2529821777344 235.99998779296874 L 437.2529821777344 248.01498779296875 L 435.22798217773436 246.93498779296874 Q 436.17298217773435 243.55998779296874 438.53548217773437 240.45498779296875 Q 440.8979821777344 237.34998779296876 444.3404821777344 234.98748779296875 Q 447.78298217773437 232.62498779296874 452.03548217773437 231.27498779296874 Q 456.28798217773436 229.92498779296875 460.8779821777344 229.92498779296875 Z M 459.66298217773436 239.91498779296876 Q 452.91298217773436 239.91498779296876 447.7154821777344 243.28998779296876 Q 442.5179821777344 246.66498779296876 439.61548217773435 252.46998779296874 Q 436.7129821777344 258.2749877929688 436.7129821777344 265.8349877929687 Q 436.7129821777344 273.25998779296873 439.61548217773435 279.1999877929687 Q 442.5179821777344 285.1399877929687 447.7154821777344 288.5149877929687 Q 452.91298217773436 291.8899877929687 459.66298217773436 291.8899877929687 Q 466.41298217773436 291.8899877929687 471.54298217773436 288.5149877929687 Q 476.67298217773435 285.1399877929687 479.6429821777344 279.1999877929687 Q 482.61298217773435 273.25998779296873 482.61298217773435 265.8349877929687 Q 482.61298217773435 258.2749877929688 479.6429821777344 252.46998779296874 Q 476.67298217773435 246.66498779296876 471.54298217773436 243.28998779296876 Q 466.41298217773436 239.91498779296876 459.66298217773436 239.91498779296876 Z" transform="matrix(1, 0, 0, 1, 0, 0)" style="white-space: pre;"/>
</svg>